<svg width="268" height="64" viewBox="0 0 268 64" fill="none" xmlns="http://www.w3.org/2000/svg">
<mask id="path-1-inside-1_1032_2124" fill="white">
<path d="M0 0H268V64H0V0Z"/>
</mask>
<path d="M0 0H268V64H0V0Z" fill="white"/>
<path d="M24.8549 16C24.4725 16 24.2317 16.4118 24.4191 16.7451L30.861 28.1973C30.9495 28.3547 31.1161 28.4522 31.2968 28.4522H42.667C43.0495 28.4522 43.2903 28.864 43.1028 29.1973L41.3175 32.3712C41.2289 32.5287 41.0624 32.6261 40.8817 32.6261H39.6206C39.2382 32.6261 38.9974 33.0379 39.1848 33.3712L41.5642 37.6012C41.7554 37.941 42.2446 37.941 42.4358 37.6012L49.5108 25.0234C49.6983 24.6901 49.4574 24.2783 49.075 24.2783H33.0091C32.8285 24.2783 32.6619 24.1808 32.5733 24.0234L30.788 20.8495C30.6005 20.5162 30.8414 20.1043 31.2238 20.1043L51.9853 20.1044C52.166 20.1044 52.3326 20.0069 52.4211 19.8495L54.1673 16.7451C54.3548 16.4118 54.114 16 53.7315 16H24.8549Z" fill="url(#paint0_linear_1032_2124)"/>
<path d="M57.3989 20.1044C57.5795 20.1044 57.7461 20.0069 57.8347 19.8495L59.5809 16.7451C59.7683 16.4118 59.5275 16 59.1451 16H56.2323C56.0516 16 55.885 16.0974 55.7965 16.2549L54.0503 19.3592C53.8628 19.6925 54.1037 20.1044 54.4861 20.1044L57.3989 20.1044Z" fill="url(#paint1_linear_1032_2124)"/>
<path d="M34.2071 32.6261C33.8247 32.6261 33.5838 33.0379 33.7713 33.3712L41.5642 47.2253C41.7554 47.5651 42.2446 47.5651 42.4358 47.2253L54.9243 25.0234C55.1118 24.6901 54.871 24.2783 54.4886 24.2783H51.5758C51.3951 24.2783 51.2285 24.3757 51.14 24.5331L42.4358 40.0072C42.2446 40.347 41.7554 40.347 41.5642 40.0072L37.5557 32.881C37.4671 32.7235 37.3005 32.6261 37.1199 32.6261H34.2071Z" fill="url(#paint2_linear_1032_2124)"/>
<path d="M68.9707 37.708C67.9254 37.708 67.0294 37.4627 66.2827 36.972C65.5467 36.4813 65.0294 35.8093 64.7307 34.956L66.0107 34.22C66.448 35.5747 67.4454 36.252 69.0027 36.252C69.7707 36.252 70.3574 36.0973 70.7627 35.788C71.168 35.468 71.3707 35.0467 71.3707 34.524C71.3707 33.9907 71.168 33.5907 70.7627 33.324C70.3574 33.0573 69.68 32.7747 68.7307 32.476C68.2614 32.3267 67.904 32.2093 67.6587 32.124C67.4134 32.028 67.104 31.8893 66.7307 31.708C66.368 31.516 66.096 31.324 65.9147 31.132C65.7334 30.9293 65.568 30.668 65.4187 30.348C65.28 30.028 65.2107 29.6653 65.2107 29.26C65.2107 28.2893 65.552 27.5213 66.2347 26.956C66.9174 26.38 67.7494 26.092 68.7307 26.092C69.616 26.092 70.384 26.316 71.0347 26.764C71.696 27.212 72.192 27.804 72.5227 28.54L71.2747 29.26C70.7947 28.108 69.9467 27.532 68.7307 27.532C68.1227 27.532 67.632 27.6813 67.2587 27.98C66.8854 28.2787 66.6987 28.684 66.6987 29.196C66.6987 29.6867 66.8747 30.06 67.2267 30.316C67.5787 30.572 68.1867 30.8387 69.0507 31.116C69.36 31.212 69.5787 31.2813 69.7067 31.324C69.8347 31.3667 70.032 31.4413 70.2987 31.548C70.576 31.6547 70.7787 31.74 70.9067 31.804C71.0347 31.868 71.2054 31.9587 71.4187 32.076C71.6427 32.1933 71.808 32.3053 71.9147 32.412C72.0214 32.5187 72.144 32.652 72.2827 32.812C72.432 32.9613 72.5387 33.116 72.6027 33.276C72.6667 33.436 72.72 33.6227 72.7627 33.836C72.816 34.0387 72.8427 34.2573 72.8427 34.492C72.8427 35.4733 72.4854 36.2573 71.7707 36.844C71.056 37.42 70.1227 37.708 68.9707 37.708ZM84.9906 26.3C86.0252 26.3 86.8839 26.6467 87.5666 27.34C88.2599 28.0227 88.6066 28.876 88.6066 29.9C88.6066 30.9133 88.2599 31.7667 87.5666 32.46C86.8839 33.1533 86.0252 33.5 84.9906 33.5H82.4146V37.5H80.9266V26.3H84.9906ZM84.9906 32.108C85.6092 32.108 86.1212 31.9 86.5266 31.484C86.9319 31.0573 87.1346 30.5293 87.1346 29.9C87.1346 29.26 86.9319 28.732 86.5266 28.316C86.1212 27.9 85.6092 27.692 84.9906 27.692H82.4146V32.108H84.9906ZM103.404 37.5L100.892 33.212H98.2521V37.5H96.7641V26.3H101.244C102.204 26.3 103.025 26.6413 103.708 27.324C104.391 27.996 104.732 28.812 104.732 29.772C104.732 30.4973 104.513 31.1587 104.076 31.756C103.649 32.3533 103.095 32.7747 102.412 33.02L105.052 37.5H103.404ZM98.2521 27.692V31.868H101.244C101.799 31.868 102.268 31.6653 102.652 31.26C103.047 30.844 103.244 30.348 103.244 29.772C103.244 29.196 103.047 28.7053 102.652 28.3C102.268 27.8947 101.799 27.692 101.244 27.692H98.2521ZM112.945 26.3H114.433V37.5H112.945V26.3ZM130.196 26.3H131.684V37.5H130.484L124.724 29.132V37.5H123.236V26.3H124.436L130.196 34.652V26.3ZM148.624 37.5H146.8L141.968 32.124V37.5H140.48V26.3H141.968V31.356L146.64 26.3H148.464L143.52 31.74L148.624 37.5ZM157.836 36.092H162.668V37.5H156.348V26.3H157.836V36.092ZM172.049 36.092H177.249V37.5H170.561V26.3H177.169V27.708H172.049V31.148H176.769V32.54H172.049V36.092Z" fill="#462D85"/>
<path d="M268 63H0V65H268V63Z" fill="#AAAAAA" fill-opacity="0.4" mask="url(#path-1-inside-1_1032_2124)"/>
<defs>
<linearGradient id="paint0_linear_1032_2124" x1="24" y1="16" x2="63.528" y2="21.2045" gradientUnits="userSpaceOnUse">
<stop stop-color="#462D88"/>
<stop offset="1" stop-color="#9169C2"/>
</linearGradient>
<linearGradient id="paint1_linear_1032_2124" x1="24" y1="16" x2="63.528" y2="21.2045" gradientUnits="userSpaceOnUse">
<stop stop-color="#462D88"/>
<stop offset="1" stop-color="#9169C2"/>
</linearGradient>
<linearGradient id="paint2_linear_1032_2124" x1="24" y1="16" x2="63.528" y2="21.2045" gradientUnits="userSpaceOnUse">
<stop stop-color="#462D88"/>
<stop offset="1" stop-color="#9169C2"/>
</linearGradient>
</defs>
</svg>
