<svg width="185" height="19" viewBox="0 0 185 19" fill="none" xmlns="http://www.w3.org/2000/svg">
<path d="M7.17335 0.0805906C9.52169 0.0805906 11.2444 0.526262 12.3414 1.4176L12.4186 4.86298L12.2386 5.60863C12.0843 5.30008 11.9472 4.94869 11.8272 4.55444C11.7072 4.14305 11.5872 3.63739 11.4672 3.03745C11.3472 2.4375 11.2701 2.07754 11.2358 1.95755C10.773 1.49474 10.2759 1.19477 9.74452 1.05764C9.21315 0.920508 8.44179 0.851944 7.43046 0.851944C6.35057 0.851944 5.48494 1.14334 4.83357 1.72615C4.18221 2.2918 3.85652 3.03745 3.85652 3.96307C3.85652 4.3059 3.89938 4.63158 3.98508 4.94012C4.08793 5.23152 4.25077 5.50578 4.47361 5.7629C4.71358 6.00287 4.92785 6.21714 5.1164 6.40569C5.30496 6.5771 5.59636 6.76566 5.9906 6.97135C6.38485 7.1599 6.68482 7.3056 6.89052 7.40845C7.11335 7.49416 7.45618 7.63129 7.91899 7.81984C8.39894 8.00839 8.71605 8.13695 8.87032 8.20552C10.2416 8.78832 11.3129 9.48254 12.0843 10.2882C12.8728 11.0767 13.267 12.0794 13.267 13.2965C13.267 14.8392 12.6157 16.0905 11.3129 17.0504C10.0102 17.9931 8.50179 18.4645 6.78767 18.4645C5.43351 18.4645 4.31934 18.3531 3.44514 18.1303C2.58808 17.9246 1.72245 17.4703 0.848245 16.7675L0.92538 12.7565L1.23392 12.9108C1.59389 13.6478 1.90243 14.702 2.15955 16.0733C3.46228 17.1532 4.97927 17.6932 6.71053 17.6932C7.72186 17.6932 8.61321 17.4103 9.38456 16.8447C10.1731 16.279 10.5673 15.5334 10.5673 14.6078C10.5673 13.905 10.293 13.2279 9.74452 12.5765C9.19601 11.9252 8.63892 11.4281 8.07326 11.0852C7.52474 10.7424 6.99336 10.4767 6.47913 10.2882C4.40504 9.49968 2.99946 8.71975 2.26239 7.9484C1.52532 7.17704 1.15679 6.0543 1.15679 4.58015C1.15679 3.67167 1.48247 2.86603 2.13383 2.16324C2.7852 1.44331 3.55655 0.920508 4.4479 0.594826C5.35638 0.252002 6.26486 0.0805906 7.17335 0.0805906ZM1.92814 5.27437C1.73959 6.7828 2.43381 7.91412 4.0108 8.66833C4.3879 8.83974 4.85071 9.05401 5.39923 9.31112C5.96489 9.56824 6.40199 9.77394 6.71053 9.92821C7.01907 10.0653 7.40475 10.2539 7.86756 10.4939C8.33038 10.7338 8.79319 10.9995 9.256 11.2909C9.44455 11.4109 9.61597 11.548 9.77024 11.7023C9.94165 11.8394 10.0788 11.9594 10.1816 12.0623C10.2845 12.1651 10.4045 12.328 10.5416 12.5508C10.6787 12.7736 10.773 12.9279 10.8244 13.0136C10.8758 13.0993 10.9701 13.2879 11.1072 13.5793C11.2615 13.8707 11.3644 14.0592 11.4158 14.1449C11.3815 12.4994 10.7901 11.3166 9.64168 10.5967C8.87032 10.1168 7.89328 9.59395 6.71053 9.02829C5.52779 8.46263 4.70501 8.05982 4.2422 7.81984C3.60798 7.47702 3.13659 7.13419 2.82805 6.79137C2.53665 6.4314 2.23668 5.92574 1.92814 5.27437ZM3.00804 4.50302C2.92233 5.27437 3.08517 5.91717 3.49656 6.4314C3.90795 6.94564 4.51646 7.43416 5.3221 7.89698C5.95632 8.27408 6.81338 8.70261 7.89328 9.18256C8.99031 9.66252 9.88165 10.1082 10.5673 10.5196C10.8416 10.691 11.0815 10.8967 11.2872 11.1367C11.4929 11.3766 11.6472 11.5909 11.75 11.7795C11.8529 11.968 11.99 12.2508 12.1614 12.6279C12.3328 12.9879 12.47 13.2622 12.5728 13.4507C12.5557 12.5765 12.4357 11.848 12.2129 11.2652C11.99 10.6824 11.5701 10.2025 10.953 9.82536C10.2673 9.39683 9.35885 8.92545 8.22753 8.41121C7.11335 7.89697 6.22201 7.44273 5.5535 7.04849C4.86786 6.65424 4.33648 6.26856 3.95937 5.89146C3.59941 5.51435 3.28229 5.05154 3.00804 4.50302ZM15.4098 18.0596V17.5775L15.7954 17.5389C16.2454 17.4875 16.5861 17.4232 16.8175 17.3461C17.0617 17.2561 17.2289 17.0761 17.3189 16.8061C17.4088 16.5233 17.4538 16.0669 17.4538 15.437V6.87493C17.4538 6.23214 17.4088 5.77575 17.3189 5.50578C17.2289 5.23581 17.0617 5.06225 16.8175 4.98512C16.5861 4.89512 16.2454 4.82442 15.7954 4.77299L15.4098 4.73443V4.25233L18.2638 4.31018H20.8864C21.6577 4.31018 22.3777 4.3616 23.0462 4.46445C23.7147 4.55444 24.2996 4.73442 24.801 5.0044C25.3024 5.26152 25.6945 5.64077 25.9773 6.14215C26.2601 6.64353 26.4015 7.29275 26.4015 8.08981C26.4015 9.23399 25.9709 10.1596 25.1095 10.8667C24.2482 11.5738 22.9947 11.9273 21.3492 11.9273H19.093V15.437C19.093 16.0669 19.1444 16.5233 19.2472 16.8061C19.3629 17.0761 19.5622 17.2561 19.845 17.3461C20.1279 17.4232 20.5264 17.4875 21.0406 17.5389L21.4649 17.5775V18.0596L18.2059 18.0017L15.4098 18.0596ZM21.6384 4.85013H19.093V11.3488H21.3492C22.2362 11.3488 22.9112 11.2202 23.374 10.9631C23.8368 10.706 24.1518 10.3332 24.3189 9.84464C24.486 9.35612 24.5696 8.77118 24.5696 8.08981C24.5696 7.35703 24.4732 6.77851 24.2803 6.35427C24.1003 5.91717 23.8561 5.58934 23.5475 5.37079C23.2519 5.15224 22.9305 5.01083 22.5833 4.94655C22.2491 4.88227 21.9341 4.85013 21.6384 4.85013ZM38.5844 18.2138C37.8773 18.2138 37.3502 17.976 37.0031 17.5003C36.6689 17.0118 36.4503 16.414 36.3475 15.7069C36.2832 15.1927 36.1804 14.6785 36.0389 14.1642C35.9104 13.65 35.6983 13.1807 35.4026 12.7565C35.1198 12.3194 34.7148 11.9723 34.1877 11.7152C33.6735 11.4581 32.9985 11.3295 32.1629 11.3295H31.3337V15.437C31.3337 16.0669 31.3787 16.5233 31.4687 16.8061C31.5587 17.0761 31.7258 17.2561 31.9701 17.3461C32.2143 17.4232 32.555 17.4875 32.9921 17.5389L33.3778 17.5775V18.0596L30.5238 18.0017H30.5045L27.6505 18.0596V17.5775L28.0362 17.5389C28.4861 17.4875 28.8268 17.4232 29.0582 17.3461C29.3025 17.2561 29.4696 17.0761 29.5596 16.8061C29.6496 16.5233 29.6946 16.0669 29.6946 15.437V6.87493C29.6946 6.23214 29.6496 5.77575 29.5596 5.50578C29.4696 5.23581 29.3025 5.06225 29.0582 4.98512C28.8268 4.89512 28.4861 4.82442 28.0362 4.77299L27.6505 4.73443V4.25233L30.5045 4.31018H33.2042C34.0784 4.31018 34.8883 4.41303 35.634 4.61872C36.3796 4.81156 36.9774 5.15224 37.4274 5.64077C37.8902 6.12929 38.1216 6.81065 38.1216 7.68485C38.1216 8.45621 37.948 9.08615 37.6009 9.57467C37.2667 10.0503 36.8167 10.4167 36.2511 10.6738C35.6983 10.9181 35.094 11.0917 34.4384 11.1945C35.3897 11.2588 36.1611 11.5866 36.7524 12.178C37.3567 12.7565 37.7424 13.6114 37.9095 14.7427C38.0252 15.4627 38.1666 16.0283 38.3337 16.4397C38.5137 16.8383 38.7065 17.1211 38.9122 17.2882C39.1308 17.4425 39.3493 17.5196 39.5679 17.5196C39.7093 17.5196 39.8443 17.4939 39.9729 17.4425C40.1143 17.3911 40.2364 17.3396 40.3392 17.2882L40.4742 17.7703C40.2685 17.8732 39.9921 17.9696 39.645 18.0596C39.2979 18.1624 38.9444 18.2138 38.5844 18.2138ZM33.2428 4.81156H31.3337V10.8088H32.9535C34.1877 10.8088 35.049 10.5581 35.5376 10.0568C36.0389 9.55539 36.2896 8.80332 36.2896 7.80056C36.2896 6.84922 36.0647 6.11643 35.6147 5.6022C35.1647 5.07511 34.3741 4.81156 33.2428 4.81156ZM41.0588 18.0596V17.5775L41.4444 17.5389C41.8944 17.4875 42.2351 17.4232 42.4665 17.3461C42.7108 17.2561 42.8779 17.0761 42.9679 16.8061C43.0579 16.5233 43.1029 16.0669 43.1029 15.437V6.87493C43.1029 6.23214 43.0579 5.77575 42.9679 5.50578C42.8779 5.23581 42.7108 5.06225 42.4665 4.98512C42.2351 4.89512 41.8944 4.82442 41.4444 4.77299L41.0588 4.73443V4.25233L43.9128 4.31018H43.9321L46.7861 4.25233V4.73443L46.4004 4.77299C45.9633 4.82442 45.6226 4.89512 45.3784 4.98512C45.1341 5.06225 44.967 5.23581 44.877 5.50578C44.787 5.77575 44.742 6.23214 44.742 6.87493V15.437C44.742 16.0669 44.787 16.5233 44.877 16.8061C44.967 17.0761 45.1341 17.2561 45.3784 17.3461C45.6226 17.4232 45.9633 17.4875 46.4004 17.5389L46.7861 17.5775V18.0596L43.9321 18.0017H43.9128L41.0588 18.0596ZM48.3086 18.0788V17.5967L48.6943 17.5582C49.1442 17.5068 49.4849 17.4425 49.7163 17.3653C49.9606 17.2882 50.1277 17.1082 50.2177 16.8254C50.3077 16.5426 50.3527 16.0798 50.3527 15.437V5.48649C50.237 5.34508 50.0634 5.19081 49.832 5.02368C49.6006 4.8437 49.2599 4.75371 48.81 4.75371H48.2315V4.25233L51.9725 4.31018C52.2039 4.63158 52.5125 5.05582 52.8981 5.58291C53.2967 6.11001 53.7338 6.69495 54.2094 7.33774C54.698 7.98054 55.1994 8.64262 55.7136 9.32398C56.2278 9.99249 56.7228 10.6417 57.1984 11.2716C57.687 11.9016 58.1241 12.4672 58.5097 12.9686C58.8954 13.47 59.1975 13.8685 59.4161 14.1642V6.87493C59.4161 6.23214 59.3711 5.77575 59.2811 5.50578C59.1911 5.22295 59.024 5.04297 58.7797 4.96583C58.5483 4.87584 58.2076 4.81156 57.7577 4.77299L57.372 4.73443V4.25233L59.8789 4.31018L62.2315 4.25233V4.73443L61.8459 4.77299C61.4087 4.82442 61.0681 4.89512 60.8238 4.98512C60.5795 5.06225 60.4124 5.23581 60.3224 5.50578C60.2324 5.77575 60.1874 6.23214 60.1874 6.87493V18.0017H59.6089C59.4032 17.5775 59.0947 17.0568 58.6833 16.4397C58.2848 15.8098 57.822 15.122 57.2949 14.3763C56.7678 13.6307 56.215 12.8722 55.6365 12.1009C55.0708 11.3166 54.5051 10.5581 53.9395 9.82536C53.3738 9.09257 52.8467 8.42407 52.3582 7.81984C51.8697 7.21561 51.4583 6.71423 51.124 6.3157V15.437C51.124 16.0798 51.169 16.5426 51.259 16.8254C51.349 17.1082 51.5161 17.2882 51.7604 17.3653C52.0047 17.4425 52.3453 17.5068 52.7824 17.5582L53.1681 17.5967V18.0788L50.6998 18.0017L48.3086 18.0788ZM63.3934 18.0596V17.5775L63.7791 17.5389C64.229 17.4875 64.5697 17.4232 64.8011 17.3461C65.0454 17.2561 65.2125 17.0761 65.3025 16.8061C65.3925 16.5233 65.4375 16.0669 65.4375 15.437V6.87493C65.4375 6.23214 65.3925 5.77575 65.3025 5.50578C65.2125 5.23581 65.0454 5.06225 64.8011 4.98512C64.5697 4.89512 64.229 4.82442 63.7791 4.77299L63.3934 4.73443V4.25233L66.2474 4.31018L68.8121 4.25233V4.75371L68.4265 4.79228C68.0408 4.83084 67.7451 4.90155 67.5394 5.0044C67.3337 5.10725 67.1923 5.30008 67.1152 5.58291C67.038 5.86574 66.9995 6.29642 66.9995 6.87493V12.043L71.4347 6.85565C71.7047 6.53425 71.8976 6.25785 72.0133 6.02644C72.1418 5.79504 72.2061 5.59577 72.2061 5.42864C72.2061 5.08153 71.9104 4.87584 71.319 4.81156L70.702 4.75371V4.25233L73.1703 4.31018L75.5036 4.25233V4.73443L74.848 4.81156C74.4623 4.86298 74.0959 5.01726 73.7488 5.27437C73.4145 5.53149 73.061 5.8786 72.6882 6.3157L69.6799 9.86393L73.3824 14.7042C73.8195 15.2698 74.2116 15.7584 74.5587 16.1697C74.9187 16.5811 75.2787 16.9025 75.6386 17.1339C76.0114 17.3525 76.4293 17.4875 76.8921 17.5389L77.297 17.5775V18.0596L74.3659 18.0017L71.5119 18.0596V17.5775L71.8011 17.5582C72.4182 17.5196 72.7268 17.3332 72.7268 16.9989C72.7268 16.7418 72.5532 16.3883 72.2061 15.9383L68.5422 11.2138L66.9995 13.0265V15.437C66.9995 16.0669 67.038 16.5233 67.1152 16.8061C67.2052 17.0761 67.3594 17.2561 67.578 17.3461C67.7965 17.4232 68.1115 17.4875 68.5229 17.5389L68.87 17.5775V18.0596L66.2667 18.0017H66.2474L63.3934 18.0596ZM77.6868 18.0596V17.5775L78.0725 17.5389C78.5224 17.4875 78.8631 17.4232 79.0945 17.3461C79.3388 17.2689 79.5059 17.0889 79.5959 16.8061C79.6859 16.5233 79.7309 16.0669 79.7309 15.437V6.87493C79.7309 6.23214 79.6859 5.77575 79.5959 5.50578C79.5059 5.22295 79.3388 5.04297 79.0945 4.96583C78.8631 4.87584 78.5224 4.81156 78.0725 4.77299L77.6868 4.73443V4.25233L80.5794 4.31018L83.067 4.25233V4.69586L82.7584 4.73443C82.3856 4.77299 82.0963 4.83084 81.8907 4.90798C81.6978 4.98511 81.5628 5.15224 81.4857 5.40936C81.4086 5.65362 81.37 6.06501 81.37 6.64353V14.6849C81.37 15.3148 81.4021 15.8355 81.4664 16.2469C81.5435 16.6583 81.7428 16.9604 82.0642 17.1532C82.3856 17.3461 82.9063 17.4425 83.6262 17.4425H85.0725C86.1909 17.4425 86.9944 17.1468 87.483 16.5554C87.9843 15.9512 88.28 15.0834 88.37 13.9521H88.7943L88.6014 18.0596L80.5408 18.0017L77.6868 18.0596ZM90.2476 18.0596V17.5775L90.6333 17.5389C91.0833 17.4875 91.4239 17.4232 91.6554 17.3461C91.8996 17.2561 92.0667 17.0761 92.1567 16.8061C92.2467 16.5233 92.2917 16.0669 92.2917 15.437V6.87493C92.2917 6.23214 92.2467 5.77575 92.1567 5.50578C92.0667 5.23581 91.8996 5.06225 91.6554 4.98512C91.4239 4.89512 91.0833 4.82442 90.6333 4.77299L90.2476 4.73443V4.25233L93.1016 4.31018H100.584L100.622 5.69862L100.777 7.47273H100.314C100.224 6.89422 100.102 6.4314 99.9474 6.08429C99.806 5.73718 99.6003 5.48007 99.3303 5.31294C99.0604 5.13296 98.694 5.01725 98.2311 4.96583C97.7812 4.90155 97.1962 4.86941 96.4763 4.86941H93.9308V10.5196H96.0906C96.3478 10.5196 96.5727 10.4617 96.7656 10.346C96.9584 10.2175 97.1127 9.98606 97.2284 9.6518C97.3569 9.31755 97.4341 8.83546 97.4598 8.20552H97.9419L97.884 10.7896L97.9419 13.6436H97.4598C97.4598 12.7051 97.3441 12.043 97.1127 11.6573C96.8813 11.2588 96.5406 11.0595 96.0906 11.0595H93.9308V15.9383C93.9308 16.5554 94.0658 16.9668 94.3358 17.1725C94.6058 17.3653 95.1072 17.4618 95.8399 17.4618H97.6333C98.379 17.4618 98.9575 17.3782 99.3689 17.2111C99.7931 17.0439 100.108 16.7097 100.314 16.2083C100.519 15.6941 100.661 14.942 100.738 13.9521H101.22L101.085 16.2662L101.027 18.0017H93.1016L90.2476 18.0596ZM111.069 3.21743C110.521 2.46322 109.792 1.82042 108.884 1.28904C108.575 1.11763 107.967 0.860515 107.058 0.517692H111.841C112.475 0.517692 112.964 0.629109 113.306 0.851944C113.666 1.05764 114.078 1.4176 114.541 1.93184C115.518 2.99459 116.82 4.46874 118.449 6.35427C120.094 8.2398 121.448 9.76537 122.511 10.931C123.574 12.0966 124.371 12.8851 124.902 13.2965C124.902 9.45682 124.86 5.78861 124.774 2.29181C124.774 2.10325 124.705 1.92327 124.568 1.75186C124.431 1.5633 124.268 1.44332 124.08 1.39189C123.925 1.35761 123.728 1.31476 123.488 1.26333C123.265 1.21191 123.085 1.16049 122.948 1.10906C122.451 0.954792 122.014 0.800521 121.637 0.64625L121.611 0.517692C122.125 0.517692 122.708 0.534833 123.36 0.569114C124.011 0.603396 124.662 0.620537 125.314 0.620537C126.565 0.620537 127.782 0.594826 128.965 0.543403L128.939 0.671962C128.648 0.79195 128.193 0.94622 127.576 1.13477C127.422 1.1862 127.225 1.23762 126.985 1.28904C126.762 1.32333 126.582 1.36618 126.445 1.4176C126.068 1.52045 125.879 1.82042 125.879 2.31752C125.879 3.226 125.854 6.15714 125.802 11.1109C125.751 16.0476 125.725 18.6702 125.725 18.9788C117.789 10.0996 113.186 5.06011 111.918 3.86022C111.849 9.77394 111.875 13.9135 111.995 16.279C112.029 16.7933 112.218 17.0932 112.561 17.1789C112.715 17.2132 112.904 17.2561 113.126 17.3075C113.366 17.3589 113.555 17.4103 113.692 17.4618C114.309 17.6503 114.763 17.8046 115.055 17.9246L115.08 18.0531C113.898 18.0017 112.681 17.976 111.429 17.976C110.778 17.976 110.127 17.9931 109.475 18.0274C108.824 18.0617 108.241 18.0788 107.727 18.0788L107.753 17.9503C108.13 17.796 108.567 17.6417 109.064 17.4875C109.218 17.436 109.407 17.3846 109.63 17.3332C109.87 17.2818 110.058 17.2389 110.195 17.2046C110.572 17.1018 110.761 16.8018 110.761 16.3047C110.864 11.9166 110.967 7.55415 111.069 3.21743ZM115.415 4.16876C116.426 5.81432 117.523 7.3056 118.706 8.64262C119.186 9.19114 119.657 9.67966 120.12 10.1082C120.583 10.5367 121.114 11.0081 121.714 11.5223C122.314 12.0366 122.82 12.4822 123.231 12.8594C122.134 11.1795 120.866 9.5511 119.426 7.97411C118.123 6.55139 116.786 5.28294 115.415 4.16876ZM113.975 4.32304C115.055 6.20857 116.306 7.95697 117.729 9.56824C119.271 11.3166 120.986 12.8765 122.871 14.2478C121.86 12.8422 120.386 11.0595 118.449 8.89974C117.009 7.3056 115.518 5.78004 113.975 4.32304ZM127.334 18.0596V17.5775L127.508 17.5582C127.958 17.4939 128.324 17.4039 128.607 17.2882C128.903 17.1725 129.153 16.9861 129.359 16.729C129.577 16.459 129.783 16.0926 129.976 15.6298L134.643 4.31018H135.298L139.849 15.6298C140.106 16.2597 140.383 16.7225 140.679 17.0182C140.974 17.3139 141.379 17.4875 141.893 17.5389L142.279 17.5775V18.0596L139.888 18.0017L136.802 18.0596V17.5775L137.188 17.5389C137.638 17.4875 137.96 17.3911 138.152 17.2496C138.345 17.1082 138.442 16.909 138.442 16.6518C138.442 16.3947 138.352 16.0476 138.172 15.6105L137.169 13.1036H131.731L130.69 15.6105C130.6 15.8419 130.522 16.054 130.458 16.2469C130.394 16.4269 130.362 16.5876 130.362 16.729C130.362 16.9732 130.465 17.1596 130.67 17.2882C130.889 17.4168 131.242 17.5003 131.731 17.5389L132.117 17.5775V18.0596L129.667 18.0017L127.334 18.0596ZM131.982 12.4865H136.937L134.508 6.37355L131.982 12.4865ZM142.763 18.0596V17.5775L143.149 17.5389C143.599 17.4875 143.94 17.4232 144.171 17.3461C144.415 17.2561 144.583 17.0761 144.673 16.8061C144.775 16.5233 144.827 16.0669 144.827 15.437V6.87493C144.827 6.23214 144.782 5.77575 144.692 5.50578C144.602 5.23581 144.435 5.06225 144.19 4.98512C143.959 4.89512 143.618 4.82442 143.168 4.77299L142.783 4.73443V4.25233L145.637 4.31018H148.356C150.091 4.31018 151.557 4.54159 152.752 5.0044C153.961 5.46721 154.88 6.2 155.51 7.20276C156.14 8.19266 156.455 9.49111 156.455 11.0981C156.455 12.2423 156.262 13.245 155.876 14.1064C155.491 14.9677 154.964 15.6876 154.295 16.2662C153.627 16.8447 152.862 17.2818 152 17.5775C151.152 17.8603 150.258 18.0017 149.32 18.0017H145.617L142.763 18.0596ZM147.758 17.4232H149.397C150.966 17.4232 152.225 16.9154 153.177 15.8998C154.128 14.8713 154.604 13.2836 154.604 11.1367C154.604 9.82536 154.417 8.7069 154.045 7.78127C153.685 6.84279 153.087 6.12929 152.251 5.64077C151.428 5.13939 150.316 4.8887 148.915 4.8887H146.485V15.1863C146.485 15.5591 146.511 15.9191 146.562 16.2662C146.614 16.6004 146.73 16.8768 146.909 17.0954C147.089 17.3139 147.372 17.4232 147.758 17.4232ZM155.921 18.0596V17.5775L156.094 17.5582C156.544 17.4939 156.911 17.4039 157.194 17.2882C157.489 17.1725 157.74 16.9861 157.946 16.729C158.164 16.459 158.37 16.0926 158.563 15.6298L163.229 4.31018H163.885L168.436 15.6298C168.693 16.2597 168.97 16.7225 169.265 17.0182C169.561 17.3139 169.966 17.4875 170.48 17.5389L170.866 17.5775V18.0596L168.475 18.0017L165.389 18.0596V17.5775L165.775 17.5389C166.225 17.4875 166.546 17.3911 166.739 17.2496C166.932 17.1082 167.028 16.909 167.028 16.6518C167.028 16.3947 166.938 16.0476 166.758 15.6105L165.756 13.1036H160.318L159.276 15.6105C159.186 15.8419 159.109 16.054 159.045 16.2469C158.981 16.4269 158.948 16.5876 158.948 16.729C158.948 16.9732 159.051 17.1596 159.257 17.2882C159.476 17.4168 159.829 17.5003 160.318 17.5389L160.703 17.5775V18.0596L158.254 18.0017L155.921 18.0596ZM160.568 12.4865H165.524L163.095 6.37355L160.568 12.4865ZM182.284 18.2138C181.577 18.2138 181.05 17.976 180.703 17.5003C180.369 17.0118 180.15 16.414 180.047 15.7069C179.983 15.1927 179.88 14.6785 179.739 14.1642C179.61 13.65 179.398 13.1807 179.102 12.7565C178.82 12.3194 178.415 11.9723 177.887 11.7152C177.373 11.4581 176.698 11.3295 175.863 11.3295H175.033V15.437C175.033 16.0669 175.078 16.5233 175.168 16.8061C175.258 17.0761 175.426 17.2561 175.67 17.3461C175.914 17.4232 176.255 17.4875 176.692 17.5389L177.078 17.5775V18.0596L174.224 18.0017H174.204L171.35 18.0596V17.5775L171.736 17.5389C172.186 17.4875 172.527 17.4232 172.758 17.3461C173.002 17.2561 173.169 17.0761 173.259 16.8061C173.349 16.5233 173.394 16.0669 173.394 15.437V6.87493C173.394 6.23214 173.349 5.77575 173.259 5.50578C173.169 5.23581 173.002 5.06225 172.758 4.98512C172.527 4.89512 172.186 4.82442 171.736 4.77299L171.35 4.73443V4.25233L174.204 4.31018H176.904C177.778 4.31018 178.588 4.41303 179.334 4.61872C180.079 4.81156 180.677 5.15224 181.127 5.64077C181.59 6.12929 181.821 6.81065 181.821 7.68485C181.821 8.45621 181.648 9.08615 181.301 9.57467C180.966 10.0503 180.517 10.4167 179.951 10.6738C179.398 10.9181 178.794 11.0917 178.138 11.1945C179.09 11.2588 179.861 11.5866 180.452 12.178C181.056 12.7565 181.442 13.6114 181.609 14.7427C181.725 15.4627 181.866 16.0283 182.034 16.4397C182.213 16.8383 182.406 17.1211 182.612 17.2882C182.831 17.4425 183.049 17.5196 183.268 17.5196C183.409 17.5196 183.544 17.4939 183.673 17.4425C183.814 17.3911 183.936 17.3396 184.039 17.2882L184.174 17.7703C183.968 17.8732 183.692 17.9696 183.345 18.0596C182.998 18.1624 182.644 18.2138 182.284 18.2138ZM176.943 4.81156H175.033V10.8088H176.653C177.887 10.8088 178.749 10.5581 179.237 10.0568C179.739 9.55539 179.989 8.80332 179.989 7.80056C179.989 6.84922 179.764 6.11643 179.314 5.6022C178.865 5.07511 178.074 4.81156 176.943 4.81156Z" fill="#462D85"/>
</svg>
